<svg xmlns="http://www.w3.org/2000/svg" width="606" height="230" viewBox="0 0 606 230">
  <g id="Group_759" data-name="Group 759" transform="translate(-1089 -356.34)">
    <path id="car" d="M114.46,96.2H100.755L96.945,84.243C93.031,71.945,83.689,64,73.142,64H44.07c-10.544,0-19.888,7.945-23.805,20.243L16.455,96.2H2.752c-1.788,0-3.1,2.111-2.665,4.287l1.374,6.9a2.948,2.948,0,0,0,2.665,2.614H8.72a20.487,20.487,0,0,0-5.055,13.8v13.8a21.109,21.109,0,0,0,3.663,12.056v15.547c0,5.081,3.28,9.2,7.325,9.2h7.325c4.045,0,7.325-4.12,7.325-9.2v-9.2h58.6v9.2c0,5.081,3.28,9.2,7.325,9.2h7.325c4.045,0,7.325-4.12,7.325-9.2V149.666a21.1,21.1,0,0,0,3.663-12.056v-13.8a20.5,20.5,0,0,0-5.052-13.8h4.594a2.948,2.948,0,0,0,2.665-2.614l1.374-6.9c.433-2.177-.879-4.287-2.667-4.287ZM33.867,91.077c1.669-5.239,5.709-8.675,10.2-8.675H73.142c4.494,0,8.534,3.436,10.2,8.675l4.562,14.328H29.3ZM21.979,137.552c-4.4,0-7.325-3.669-7.325-9.172s2.93-9.172,7.325-9.172,10.988,8.255,10.988,13.759S26.374,137.552,21.979,137.552Zm73.254,0c-4.4,0-10.988.917-10.988-4.586s6.593-13.759,10.988-13.759,7.325,3.669,7.325,9.172S99.628,137.552,95.233,137.552Z" transform="translate(1373.981 403.926)" fill="#210837"/>
    <path id="car-2" data-name="car" d="M114.46,89.639H100.755l-3.809-9.523A25.509,25.509,0,0,0,73.142,64H44.07A25.517,25.517,0,0,0,20.264,80.116l-3.809,9.523H2.752A2.746,2.746,0,0,0,.088,93.052l1.374,5.494a2.745,2.745,0,0,0,2.665,2.081H8.72a14.548,14.548,0,0,0-5.055,10.988V122.6a14.531,14.531,0,0,0,3.663,9.6v12.378a7.326,7.326,0,0,0,7.325,7.325h7.325a7.326,7.326,0,0,0,7.325-7.325v-7.325h58.6v7.325a7.326,7.326,0,0,0,7.325,7.325h7.325a7.326,7.326,0,0,0,7.325-7.325V132.2a14.522,14.522,0,0,0,3.663-9.6V111.615a14.554,14.554,0,0,0-5.052-10.988h4.594a2.745,2.745,0,0,0,2.665-2.081l1.374-5.494a2.748,2.748,0,0,0-2.667-3.413ZM33.867,85.557a10.989,10.989,0,0,1,10.2-6.906H73.142a10.989,10.989,0,0,1,10.2,6.906l4.562,11.407H29.3Zm-11.888,37a7.3,7.3,0,1,1,0-14.605c4.4,0,10.988,6.572,10.988,10.954S26.374,122.557,21.979,122.557Zm73.254,0c-4.4,0-10.988.73-10.988-3.651s6.593-10.954,10.988-10.954a7.3,7.3,0,1,1,0,14.605Z" transform="translate(1533.98 425.436)" fill="#210837"/>
    <path id="car-3" data-name="car" d="M72.842,87.306H64.12L61.7,78.649C59.2,69.749,53.259,64,46.548,64h-18.5C21.337,64,15.39,69.749,12.9,78.649l-2.424,8.656H1.753c-1.138,0-1.973,1.527-1.7,3.1L.931,95.4c.194,1.111.893,1.892,1.7,1.892H5.551a16.064,16.064,0,0,0-3.217,9.988v9.988a16.785,16.785,0,0,0,2.331,8.725v11.251c0,3.677,2.088,6.659,4.662,6.659h4.662c2.574,0,4.662-2.982,4.662-6.659v-6.659H55.944v6.659c0,3.677,2.088,6.659,4.662,6.659h4.662c2.574,0,4.662-2.982,4.662-6.659V125.995a16.774,16.774,0,0,0,2.331-8.725v-9.988a16.073,16.073,0,0,0-3.215-9.988h2.924c.8,0,1.5-.78,1.7-1.892l.874-4.994c.275-1.575-.559-3.1-1.7-3.1ZM21.554,83.6c1.062-3.791,3.633-6.278,6.493-6.278h18.5c2.86,0,5.431,2.487,6.493,6.278l2.9,10.369H18.65Zm-7.565,33.633c-2.8,0-4.662-2.655-4.662-6.638s1.865-6.638,4.662-6.638,6.993,5.974,6.993,9.957S16.785,117.228,13.988,117.228Zm46.618,0c-2.8,0-6.993.664-6.993-3.319s4.2-9.957,6.993-9.957,4.662,2.655,4.662,6.638S63.4,117.228,60.606,117.228Z" transform="translate(1233.402 433.436)" fill="#210837"/>
    <rect id="Rectangle_17" data-name="Rectangle 17" width="575" height="9" rx="3" transform="translate(1120 577.34)" fill="#210837"/>
    <rect id="Rectangle_18" data-name="Rectangle 18" width="5" height="149" transform="translate(1133 429.34)" fill="#210837"/>
    <rect id="Rectangle_19" data-name="Rectangle 19" width="93" height="93" rx="13" transform="translate(1089 356.34)" fill="#210837"/>
    <g id="Rectangle_20" data-name="Rectangle 20" transform="translate(1098 365.34)" fill="none" stroke="#fff" stroke-width="3">
      <rect width="76" height="76" rx="13" stroke="none"/>
      <rect x="1.5" y="1.5" width="73" height="73" rx="11.5" fill="none"/>
    </g>
    <text id="P" transform="translate(1136 428.34)" fill="#fcd93b" font-size="61" font-family="SegoeUI-Bold, Segoe UI" font-weight="700"><tspan x="-18" y="0">P</tspan></text>
    <path id="Polygon_1" data-name="Polygon 1" d="M7.923.407a1,1,0,0,1,1.153,0l5.349,3.776A1,1,0,0,1,13.849,6H3.151a1,1,0,0,1-.577-1.817Z" transform="translate(1342.999 573.34)" fill="#fcd93b"/>
    <path id="Polygon_3" data-name="Polygon 3" d="M7.923.407a1,1,0,0,1,1.153,0l5.349,3.776A1,1,0,0,1,13.849,6H3.151a1,1,0,0,1-.577-1.817Z" transform="translate(1185 573.34)" fill="#fcd93b"/>
    <path id="Polygon_2" data-name="Polygon 2" d="M7.923.407a1,1,0,0,1,1.153,0l5.349,3.776A1,1,0,0,1,13.849,6H3.151a1,1,0,0,1-.577-1.817Z" transform="translate(1502.001 573.34)" fill="#fcd93b"/>
    <path id="Polygon_4" data-name="Polygon 4" d="M7.923.407a1,1,0,0,1,1.153,0l5.349,3.776A1,1,0,0,1,13.849,6H3.151a1,1,0,0,1-.577-1.817Z" transform="translate(1660 573.34)" fill="#fcd93b"/>
  </g>
</svg>
